<svg xmlns="http://www.w3.org/2000/svg" viewBox="0 0 19 18">
<path class="st0" 
d="M1.7 5.2v7.6c0 1.9 1.6 3.5 3.5 3.5h7.7c1.9 0 3.5-1.6 3.5-3.5V5.2c0-1.9-1.6-3.5-3.5-3.5H5.2c-1.9 0-3.5 1.6-3.5 3.5zM0 5.2C0 2.3 2.3 0 5.2 0h7.7c2.9 0 5.2 2.3 5.2 5.2v7.6c0 2.9-2.3 5.2-5.2 5.2H5.2C2.3 18 0 15.7 0 12.8V5.2zm9.1 8.6c-2.6 0-4.8-2.1-4.8-4.8s2.1-4.8 4.8-4.8 4.8 2.1 4.8 4.8-2.2 4.8-4.8 4.8zm0-1.6c1.7 0 3.1-1.4 3.1-3.1S10.8 6 9.1 6 6 7.4 6 9.1s1.4 3.1 3.1 3.1zm4.8-9.1c.6 0 1.1.5 1.1 1.1s-.5 1.1-1.1 1.1-1.1-.5-1.1-1.1.4-1.1 1.1-1.1z"></path>
</svg>