
<svg version="1.1"  xmlns="http://www.w3.org/2000/svg" xmlns:xlink="http://www.w3.org/1999/xlink" x="0px"
	 y="0px" viewBox="0 0 1915.4 215.9" style="enable-background:new 0 0 1915.4 215.9;" xml:space="preserve">
<g>
	<path d="M93.7,205.3V86.6H51.8v-7.2h91.5v7.2h-41.9v118.7H93.7z"/>
	<path d="M331.9,150.3c0,8.3-1,15.9-3.1,22.9c-2,7-5.1,13-9.1,18.1c-4,5.1-9.1,9-15.1,11.8c-6.1,2.8-13.1,4.2-21.1,4.2
		s-15.1-1.4-21.1-4.2c-6.1-2.8-11.1-6.7-15.1-11.8c-4-5.1-7-11.1-9.1-18.1c-2-7-3.1-14.6-3.1-22.9v-15.9c0-8.3,1-15.9,3.1-22.9
		c2-7,5.1-13,9.1-18.1c4-5.1,9-9,15.1-11.8c6-2.8,13.1-4.2,21.1-4.2s15.1,1.4,21.1,4.2c6.1,2.8,11.1,6.7,15.1,11.8
		c4,5.1,7,11.1,9.1,18.1c2,7,3.1,14.6,3.1,22.9V150.3z M324,134.6c0-16.3-3.6-28.7-10.8-37.2c-7.2-8.5-17.1-12.7-29.7-12.7
		s-22.5,4.2-29.7,12.7c-7.2,8.5-10.8,20.9-10.8,37.2v15.5c0,16.3,3.6,28.7,10.8,37.2c7.2,8.5,17.1,12.7,29.7,12.7
		s22.5-4.2,29.7-12.7c7.2-8.5,10.8-20.9,10.8-37.2V134.6z"/>
	<path d="M470.1,79.4c16.3,0,28.7,4.6,37.3,13.9c8.6,9.3,12.8,22.6,12.8,40.1v18c0,8.7-1.2,16.4-3.6,23.1
		c-2.4,6.7-5.8,12.3-10.2,16.8c-4.4,4.5-9.7,8-15.9,10.4c-6.2,2.4-13,3.6-20.4,3.6H433V79.4H470.1z M440.6,197.9H471
		c5.7,0,11.1-1,16.1-2.9c5-1.9,9.4-4.8,13.1-8.7c3.7-3.9,6.7-8.8,8.9-14.6c2.2-5.8,3.3-12.6,3.3-20.4v-17.1
		c0-15.9-3.6-27.8-10.8-35.7c-7.2-7.9-17.5-11.8-30.7-11.8h-30.2V197.9z"/>
	<path d="M708.7,164.6h-56.9l-15.4,40.7H628l48.5-125.9h7.7l48,125.9h-8.6L708.7,164.6z M654.4,157.8H706l-15-40.7
		c-1.9-5.1-3.7-10.1-5.6-14.9c-1.9-4.8-3.6-9.7-5.1-14.6c-1.4,4.9-3,9.7-4.8,14.6c-1.8,4.8-3.7,9.8-5.7,14.9L654.4,157.8z"/>
	<path d="M867.8,153.1v52.2h-7.7v-52.2l-43.5-73.7h8.2l39.3,66.7l37.7-66.7h8.4L867.8,153.1z"/>
	<path d="M1011.7,187.1c8,0,13.8-1.4,17.5-4.3c3.6-2.9,5.4-6.4,5.4-10.7v-1.9c0-5.1-1.9-8.9-5.7-11.4c-3.8-2.5-9.3-4.6-16.5-6.2
		c-5.2-1.2-10.5-2.4-15.8-3.7c-5.3-1.3-10.1-3.2-14.3-5.8c-4.2-2.6-7.7-6-10.4-10.4c-2.7-4.4-4-10.2-4-17.5v-2.3
		c0-3.8,0.8-7.8,2.3-12c1.5-4.1,4-7.9,7.5-11.4c3.5-3.5,8.1-6.4,13.9-8.6c5.8-2.3,12.9-3.4,21.4-3.4c7,0,13.7,0.7,20.1,2.2
		c6.4,1.5,12.8,4.2,19.2,8.3l-10.5,17.3c-5.1-3.3-9.9-5.4-14.3-6.4c-4.4-1-9.1-1.5-14.1-1.5c-4,0-7.4,0.5-10.3,1.4
		c-2.9,0.9-5.3,2.2-7.2,3.7c-1.9,1.5-3.3,3.1-4.3,4.9c-0.9,1.7-1.4,3.5-1.4,5.2v2.1c0,3,0.7,5.5,2.2,7.3c1.5,1.9,3.4,3.4,5.8,4.6
		c2.4,1.2,5.3,2.2,8.6,3c3.3,0.8,6.8,1.5,10.6,2.4c7.4,1.6,13.7,3.6,18.8,6c5.1,2.4,9.1,5.1,12.2,8.1c3.1,3,5.3,6.4,6.6,10
		c1.3,3.7,2,7.7,2,12v2.3c0,7-1.3,12.8-3.8,17.5c-2.5,4.7-5.9,8.5-10.2,11.3c-4.3,2.9-9.3,4.9-14.8,6.1c-5.6,1.2-11.4,1.8-17.5,1.8
		c-4.5,0-9-0.4-13.4-1.1c-4.4-0.8-8.5-1.8-12.3-3.1c-3.8-1.3-7.4-2.8-10.7-4.6c-3.3-1.8-6.2-3.7-8.6-5.7l10.8-17.8
		c3.8,3.3,8.8,6.1,14.8,8.6C997.4,185.9,1004.2,187.1,1011.7,187.1z"/>
	<path d="M1254.3,205.3h-24.3l-12.2-34.6h-42.4l-12.4,34.6h-22.9L1187,79.4h20.1L1254.3,205.3z M1181.9,152h29.5l-8.6-25.7
		c-1.5-4.2-2.7-7.7-3.6-10.6c-0.9-2.9-1.8-5.8-2.7-8.8c-0.5,1.7-0.9,3.3-1.3,4.7c-0.4,1.4-0.8,2.8-1.3,4.3c-0.5,1.5-1,3-1.5,4.6
		c-0.5,1.6-1.2,3.6-2,5.8L1181.9,152z"/>
	<path d="M1372.8,79.4v107h57.4v18.9h-79.8V79.4H1372.8z"/>
	<path d="M1651,205.3h-24.3l-12.2-34.6h-42.4l-12.4,34.6h-22.9l46.8-125.9h20.1L1651,205.3z M1578.5,152h29.5l-8.6-25.7
		c-1.5-4.2-2.7-7.7-3.6-10.6c-0.9-2.9-1.8-5.8-2.7-8.8c-0.5,1.7-0.9,3.3-1.3,4.7c-0.4,1.4-0.8,2.8-1.3,4.3c-0.5,1.5-1,3-1.5,4.6
		c-0.5,1.6-1.2,3.6-2,5.8L1578.5,152z"/>
	<path d="M1771.8,79.4c18.7,0,32.5,4.6,41.4,13.9c8.8,9.3,13.3,22.6,13.3,40.1v18c0,8.7-1,16.4-3,23.1c-2,6.7-5.1,12.3-9.5,16.8
		c-4.4,4.5-10,8-16.8,10.4c-6.9,2.4-15.2,3.6-25,3.6H1728V79.4H1771.8z M1750.1,186.4h18.7c5.6,0,10.6-0.6,14.9-1.9
		c4.4-1.3,8-3.3,11-6.1c3-2.8,5.2-6.5,6.8-11.1c1.6-4.6,2.4-10.2,2.4-16.8v-16.2c0-13.3-2.9-22.6-8.8-27.9c-5.9-5.4-14.6-8-26.3-8
		h-18.7V186.4z"/>
	<g>
		<path d="M1819.9,61.7c0,0,33.3-24.8,16.2-53C1836.1,8.7,1802.8,25.2,1819.9,61.7z"/>
		<path d="M1830.4,67.4c0,0,12.9-19.1,33.3-8.2C1863.6,59.2,1854,77.7,1830.4,67.4z"/>
	</g>
</g>
</svg>
